<?xml version="1.0" encoding="UTF-8"?>
<svg width="320px" height="49px" viewBox="0 0 320 49" version="1.1" xmlns="http://www.w3.org/2000/svg" xmlns:xlink="http://www.w3.org/1999/xlink">
    <title>hogeschool-van-amsterdam</title>
    <defs>
        <filter id="filter-1">
            <feColorMatrix in="SourceGraphic" type="matrix" values="0 0 0 0 1.000000 0 0 0 0 1.000000 0 0 0 0 1.000000 0 0 0 1.000000 0"></feColorMatrix>
        </filter>
    </defs>
    <g id="Page-1" stroke="none" stroke-width="1" fill="none" fill-rule="evenodd">
        <g filter="url(#filter-1)" id="hogeschool-van-amsterdam">
            <g>
                <path d="M64.3218079,30.9224859 L64.8659887,30.9224859 C65.6831638,30.9224859 65.6831638,30.3783051 65.6831638,28.0659887 L65.6831638,21.6696045 C65.6831638,19.0842938 65.6831638,18.6757062 64.8659887,18.6757062 L64.3218079,18.6757062 L64.3218079,18.1315254 L70.0384181,18.1315254 L70.0384181,18.6757062 L69.4942373,18.6757062 C68.6770621,18.6757062 68.6770621,19.0842938 68.6770621,21.6696045 L68.6770621,24.2549153 L73.3035028,24.2549153 L73.3035028,21.6696045 C73.3035028,19.0842938 73.3035028,18.6757062 72.3507345,18.6757062 L71.9421469,18.6757062 L71.9421469,18.1315254 L77.6569492,18.1315254 L77.6569492,18.6757062 L77.1127684,18.6757062 C76.2955932,18.6757062 76.2955932,19.0842938 76.2955932,21.6696045 L76.2955932,28.0659887 C76.2955932,30.3783051 76.2955932,30.9224859 77.1127684,30.9224859 L77.6569492,30.9224859 L77.6569492,31.4666667 L71.9421469,31.4666667 L71.9421469,30.9224859 L72.3507345,30.9224859 C73.3035028,30.9224859 73.3035028,30.3783051 73.3035028,28.0659887 L73.3035028,24.9383051 L68.6770621,24.9383051 L68.6770621,28.0659887 C68.6770621,30.3783051 68.6770621,30.9224859 69.4942373,30.9224859 L70.0384181,30.9224859 L70.0384181,31.4666667 L64.3218079,31.4666667 L64.3218079,30.9224859 Z M82.0122034,26.7046328 C82.0122034,23.0291525 82.8293785,22.4849718 83.780339,22.4849718 C84.7331073,22.4849718 85.5502825,23.0309605 85.5502825,26.7046328 C85.5502825,29.9679096 85.0061017,31.0580813 83.780339,31.0580813 C82.5563842,31.059887 82.0122034,29.9679096 82.0122034,26.7046328 Z M79.1557062,26.7046328 C79.1557062,29.6949153 80.7882486,31.7360452 83.7821469,31.7360452 C86.7760452,31.7360452 88.4085876,29.6949153 88.4085876,26.7046328 C88.4085876,23.8445198 86.7760452,21.8051977 83.7821469,21.8051977 C80.7882486,21.8051977 79.1557062,23.8445198 79.1557062,26.7046328 Z M93.0332203,25.0702825 C93.0332203,23.9819209 93.0332203,22.4849718 94.5301695,22.4849718 C95.8897175,22.4849718 95.8897175,24.2549153 95.8897175,25.2076836 C95.8897175,26.160452 95.6185311,27.5200018 94.5301695,27.5200018 C93.0332203,27.5218079 93.0332203,26.1622599 93.0332203,25.0702825 L93.0332203,25.0702825 Z M93.7148023,29.4237288 C92.7620339,29.4237288 92.3552542,29.2899435 92.3552542,28.879548 C92.3552542,28.4727684 92.6264407,28.1979661 93.1706215,28.1979661 C95.620339,28.1979661 98.6142373,28.1979661 98.6142373,24.7972881 C98.6142373,23.9819209 98.0700565,23.1647458 97.2528814,22.4831638 C97.6632768,22.3475706 97.7988701,22.3475706 98.0700565,22.3475706 C98.6142373,22.3475706 98.2056497,23.300339 99.2940113,23.300339 C99.9737853,23.300339 100.24678,22.7561582 100.24678,22.2101695 C100.24678,21.6659887 99.9755932,21.1218079 99.2940113,21.1218079 C98.3412429,21.1218079 97.6614689,22.0745763 96.5731073,22.0745763 C96.1645198,22.0745763 95.3491525,21.8033898 94.3963842,21.8033898 C92.3552542,21.8033898 90.3141243,22.620565 90.3141243,25.0684746 C90.3141243,26.4316384 91.1294915,27.380791 92.4908475,27.7911864 C91.5380791,28.1979661 90.9938983,28.879548 90.9938983,29.6949153 C90.9938983,30.5138983 91.2650847,31.1918644 92.0822599,31.3292655 L92.0822599,31.4630508 C91.1294915,31.600452 89.9055367,32.1446328 89.9055367,33.3703955 C89.9055367,35.4115254 92.6264407,35.6827119 94.1233898,35.6827119 C96.3019209,35.6827119 99.2940113,34.8673446 99.2940113,32.1446328 C99.2940113,29.8323164 97.2528814,29.4219209 95.8915254,29.4219209 L93.7148023,29.4219209 L93.7148023,29.4237288 L93.7148023,29.4237288 Z M94.6675706,31.7378531 C95.7577401,31.7378531 97.6614689,31.7378531 97.6614689,33.2348023 C97.6614689,34.7317514 95.7559322,35.1421469 94.5319774,35.1421469 C93.4436158,35.1421469 91.5380778,34.8709605 91.5380778,33.3722034 C91.5362712,31.7378531 93.4436158,31.7378531 94.6675706,31.7378531 L94.6675706,31.7378531 Z M104.056045,26.1622599 C104.056045,24.3923164 104.191638,22.4849718 105.688588,22.4849718 C107.048136,22.4849718 107.048136,24.119322 107.048136,26.1622599 L104.056045,26.1622599 Z M110.043842,26.7046328 C110.043842,23.8445198 108.818079,21.8051977 105.688588,21.8051977 C102.830282,21.8051977 101.199548,23.8445198 101.199548,26.7046328 C101.199548,29.6949153 102.83209,31.7360452 105.688588,31.7360452 C108.136497,31.7360452 109.635254,30.5138983 109.770847,28.1979661 L108.95548,28.1979661 C108.95548,29.6949153 108.002712,31.0580791 106.370169,31.0580791 C104.191638,31.0580791 104.056045,29.1507345 104.056045,27.2488136 L104.056045,26.7046328 L110.043842,26.7046328 L110.043842,26.7046328 Z M111.949379,28.3371751 L112.493559,28.3371751 C112.902147,29.9679096 113.719322,31.059887 115.487458,31.059887 C116.438418,31.059887 117.391186,30.5157062 117.391186,29.5629379 C117.391186,28.3371751 116.438418,28.199774 114.670282,27.6555932 C113.173333,27.3844068 111.949379,26.840226 111.949379,24.9364972 C111.949379,22.7579661 113.581921,21.8051977 115.623051,21.8051977 C116.440226,21.8051977 116.984407,22.0763842 117.664181,22.0763842 C118.208362,22.0763842 118.343955,21.940791 118.752542,21.8051977 L118.752542,24.799096 L118.208362,24.799096 C117.937175,23.5733333 116.984407,22.4849718 115.760452,22.4849718 C114.807684,22.4849718 113.719322,22.7579661 113.719322,23.8445198 C113.719322,24.7972881 114.263503,24.9364972 116.440226,25.4788701 C118.210169,25.8856497 119.434124,26.4316384 119.434124,28.6065537 C119.434124,30.7850847 117.528588,31.7342373 115.623051,31.7342373 C114.807684,31.7342373 113.719322,31.4630508 112.902147,31.4630508 C112.63096,31.4630508 112.222373,31.600452 112.084972,31.7342373 L111.949379,31.7342373 L111.949379,28.3371751 L111.949379,28.3371751 Z M129.36678,28.199774 C129.095593,30.6494915 127.869831,31.7378531 125.420113,31.7378531 C122.426215,31.7378531 121.064859,29.4255367 121.064859,26.7064407 C121.064859,23.1665537 123.650169,21.8070056 125.828701,21.8070056 C128.414011,21.8070056 129.231186,23.1683616 129.231186,23.8463277 C129.231186,24.6635028 128.822599,25.3432768 127.734237,25.3432768 C126.917062,25.3432768 126.508475,24.799096 126.508475,24.119322 C126.508475,23.5733333 126.779661,23.439548 126.779661,23.1665537 C126.779661,22.7579661 126.099887,22.4849718 125.691299,22.4849718 C124.058757,22.4849718 123.921356,24.6635028 123.921356,26.840226 C123.921356,28.3371751 123.921356,31.059887 126.098079,31.059887 C127.730621,31.059887 128.410395,29.8341243 128.545989,28.199774 L129.36678,28.199774 L129.36678,28.199774 Z M130.182147,30.9224859 L130.861921,30.9224859 C131.406102,30.9224859 131.541695,30.6512994 131.541695,29.6967232 L131.541695,19.3554802 C131.541695,18.2671186 131.406102,18.1315254 130.861921,18.1315254 L130.182147,18.1315254 L130.182147,17.5873446 L134.264407,17.5873446 L134.264407,23.3021469 L134.401808,23.3021469 C135.033807,22.344889 136.113332,21.7795208 137.260113,21.8051977 C139.030056,21.8051977 139.981017,22.8935593 139.981017,24.3905085 L139.981017,29.6967232 C139.981017,30.6494915 140.11661,30.9224859 140.660791,30.9224859 L141.069379,30.9224859 L141.069379,31.4666667 L136.03435,31.4666667 L136.03435,30.9224859 L136.442938,30.9224859 C136.987119,30.9224859 137.258305,30.6512994 137.258305,29.6967232 L137.258305,24.9364972 C137.258305,23.9837288 137.258305,22.8935593 136.03435,22.8935593 C134.264407,22.8935593 134.264407,24.9364972 134.264407,26.1622599 L134.264407,29.6967232 C134.264407,30.6494915 134.401808,30.9224859 134.945989,30.9224859 L135.354576,30.9224859 L135.354576,31.4666667 L130.183955,31.4666667 L130.183955,30.9224859 L130.182147,30.9224859 L130.182147,30.9224859 Z M145.151638,26.7046328 C145.151638,23.0291525 145.968814,22.4849718 147.057175,22.4849718 C148.009944,22.4849718 148.827119,23.0309605 148.827119,26.7046328 C148.827119,29.9679096 148.282938,31.0580813 147.057175,31.0580813 C145.560226,31.059887 145.151638,29.9679096 145.151638,26.7046328 Z M142.430734,26.7046328 C142.430734,29.6949153 143.927684,31.7360452 147.057175,31.7360452 C150.051073,31.7360452 151.548023,29.6949153 151.548023,26.7046328 C151.548023,23.8445198 150.051073,21.8051977 147.057175,21.8051977 C143.925876,21.8051977 142.430734,23.8445198 142.430734,26.7046328 Z M155.901469,26.7046328 C155.901469,23.0291525 156.718644,22.4849718 157.671412,22.4849718 C158.624181,22.4849718 159.576949,23.0309605 159.576949,26.7046328 C159.576949,29.9679096 159.032768,31.0580813 157.671412,31.0580813 C156.44565,31.059887 155.901469,29.9679096 155.901469,26.7046328 Z M153.043164,26.7046328 C153.043164,29.6949153 154.675706,31.7360452 157.669605,31.7360452 C160.663503,31.7360452 162.294237,29.6949153 162.294237,26.7046328 C162.294237,23.8445198 160.663503,21.8051977 157.669605,21.8051977 C154.677514,21.8051977 153.043164,23.8445198 153.043164,26.7046328 L153.043164,26.7046328 Z M163.248814,30.9224859 L163.930395,30.9224859 C164.474576,30.9224859 164.611977,30.6512994 164.611977,29.6967232 L164.611977,19.3554802 C164.611977,18.2671186 164.474576,18.1315254 163.930395,18.1315254 L163.248814,18.1315254 L163.248814,17.5873446 L167.331073,17.5873446 L167.331073,29.6967232 C167.331073,30.6494915 167.60226,30.9224859 168.150056,30.9224859 L168.694237,30.9224859 L168.694237,31.4666667 L163.248814,31.4666667 L163.248814,30.9224859 L163.248814,30.9224859 Z M183.795706,22.6223729 C183.251525,22.6223729 182.980339,23.1665537 182.707345,23.8463277 L180.395028,29.4255367 C180.123842,30.1071186 179.850847,30.7887006 179.713446,31.6040678 L178.353898,31.6040678 C178.216497,31.059887 178.082712,30.5157062 177.809718,30.1071186 L175.36,23.8463277 C175.088814,23.0309605 174.949605,22.6223729 174.407232,22.6223729 L174.136045,22.6223729 L174.136045,22.0781921 L179.308475,22.0781921 L179.308475,22.6223729 L178.626893,22.6223729 C178.216497,22.6223729 177.945311,22.6223729 177.945311,23.0309605 C177.945311,23.1665537 178.082712,23.3021469 178.216497,23.7107345 L179.986441,28.4745763 L181.893785,23.7107345 C181.893785,23.5733333 182.027571,23.3021469 182.027571,23.1665537 C182.027571,22.7579661 181.756384,22.6223729 181.349605,22.6223729 L180.939209,22.6223729 L180.939209,22.0781921 L183.795706,22.0781921 L183.795706,22.6223729 L183.795706,22.6223729 Z M189.919096,28.8813559 C189.919096,30.5157062 188.969944,30.7887006 188.425763,30.7887006 C187.472994,30.7887006 187.2,29.9697175 187.2,29.1543503 C187.2,27.3844068 187.877966,26.4352542 189.374915,26.4352542 C189.512316,26.4352542 189.785311,26.4352542 189.919096,26.5690395 L189.919096,28.8813559 L189.919096,28.8813559 Z M193.728362,28.7457627 C193.728362,29.6949153 193.728362,30.6494915 193.050395,30.6494915 C192.912994,30.6494915 192.64,30.5157062 192.64,29.9679096 L192.64,24.3905085 C192.64,22.2119774 190.59887,21.8051977 188.830734,21.8051977 C187.471186,21.8051977 185.021469,22.0763842 185.021469,23.9837288 C185.021469,24.6635028 185.56565,25.2094915 186.381017,25.2094915 C187.2,25.2094915 187.877966,24.799096 187.877966,24.119322 C187.877966,23.5733333 187.333785,23.1665537 187.333785,23.0309605 C187.333785,22.4849718 188.286554,22.4849718 188.696949,22.4849718 C189.646102,22.4849718 189.919096,23.1665537 189.919096,23.9837288 L189.919096,25.8874576 L189.103729,25.8874576 C187.062599,25.8874576 184.339887,26.7064407 184.339887,29.1543503 C184.339887,30.7887006 185.703051,31.739661 187.333785,31.739661 C188.286554,31.739661 189.512316,31.3328814 190.056497,30.5175141 C190.327684,31.3328814 191.416045,31.739661 192.097627,31.739661 C194.409944,31.739661 194.409944,30.1089266 194.409944,28.7493785 L193.728362,28.7493785 L193.728362,28.7457627 L193.728362,28.7457627 Z M195.36452,30.9224859 L195.908701,30.9224859 C196.452881,30.9224859 196.590282,30.6512994 196.590282,29.6967232 L196.590282,23.8463277 C196.590282,22.8953672 196.452881,22.6223729 195.908701,22.6223729 L195.36452,22.6223729 L195.36452,22.0781921 L197.268249,22.0781921 C197.949831,22.0781921 198.631412,21.9425989 199.175593,21.8070056 L199.175593,23.439548 L199.309379,23.439548 C199.99096,22.3511864 200.943729,21.8070056 202.303277,21.8070056 C204.07322,21.8070056 205.025989,22.8953672 205.025989,24.3923164 L205.025989,29.6985311 C205.025989,30.6512994 205.159774,30.9242938 205.707571,30.9242938 L206.11435,30.9242938 L206.11435,31.4684746 L201.216723,31.4684746 L201.216723,30.9242938 L201.48791,30.9242938 C202.169492,30.9242938 202.303277,30.6531073 202.303277,29.6985311 L202.303277,24.9383051 C202.303277,23.9855367 202.303277,22.8953672 201.077514,22.8953672 C199.44678,22.8953672 199.44678,24.9383051 199.44678,26.1640678 L199.44678,29.6985311 C199.44678,30.6512994 199.44678,30.9242938 199.99096,30.9242938 L200.401356,30.9242938 L200.401356,31.4684746 L195.366328,31.4684746 L195.366328,30.9224859 L195.36452,30.9224859 Z M219.449492,26.4334463 L215.096045,26.4334463 L217.408362,21.1236158 L219.449492,26.4334463 Z M219.449492,31.4648588 L225.437288,31.4648588 L225.437288,30.920678 L225.026893,30.920678 C224.211525,30.920678 223.938531,30.2427119 223.667345,29.5611299 L220.263051,20.579435 C219.991864,19.7622599 219.581469,18.8094915 219.447684,17.9941243 L217.813333,17.9941243 C217.542147,18.6738983 217.269153,19.4910734 216.997966,20.1708475 L213.326102,28.879548 C212.64452,30.3764972 212.373333,30.920678 211.418757,30.920678 L211.418757,31.4648588 L215.501017,31.4648588 L215.501017,30.920678 L214.956836,30.920678 C214.27887,30.7868927 214.004068,30.6494915 214.004068,30.1053107 C214.004068,29.6949153 214.141469,29.0169492 214.414463,28.3353672 L214.958644,27.1096045 L219.722486,27.1096045 L220.132881,28.3353672 C220.539661,29.1507345 220.810847,29.9661017 220.810847,30.2427119 C220.810847,30.7868927 220.266667,30.7868927 219.451299,30.920678 L219.451299,31.4648588 L219.449492,31.4648588 L219.449492,31.4648588 Z M225.981469,30.9224859 L226.659435,30.9224859 C227.069831,30.9224859 227.341017,30.6512994 227.341017,29.6967232 L227.341017,23.8463277 C227.341017,22.8953672 227.069831,22.6223729 226.659435,22.6223729 L225.981469,22.6223729 L225.981469,22.0781921 L227.885198,22.0781921 C228.700565,22.0781921 229.244746,21.9425989 229.926328,21.8070056 L229.926328,23.439548 C230.60791,22.3511864 231.696271,21.8070056 233.057627,21.8070056 C234.145989,21.8070056 235.232542,22.2155932 235.505537,23.439548 C236.320904,22.2137853 237.139887,21.8070056 238.63322,21.8070056 C240.540565,21.8070056 241.355932,22.8953672 241.355932,24.3923164 L241.355932,29.6985311 C241.355932,30.6512994 241.627119,30.9242938 242.171299,30.9242938 L242.581695,30.9242938 L242.581695,31.4684746 L237.546667,31.4684746 L237.546667,30.9242938 L237.957062,30.9242938 C238.501243,30.9242938 238.772429,30.6531073 238.772429,29.6985311 L238.772429,24.9383051 C238.772429,23.9855367 238.772429,22.8953672 237.546667,22.8953672 C235.642938,22.8953672 235.642938,24.9383051 235.642938,26.1640678 L235.642938,29.6985311 C235.642938,30.6512994 235.914124,30.9242938 236.458305,30.9242938 L236.868701,30.9242938 L236.868701,31.4684746 L231.833672,31.4684746 L231.833672,30.9242938 L232.240452,30.9242938 C232.784633,30.9242938 233.059435,30.6531073 233.059435,29.6985311 L233.059435,24.9383051 C233.059435,23.9855367 233.059435,22.8953672 231.833672,22.8953672 C230.063729,22.8953672 230.063729,24.9383051 230.063729,26.1640678 L230.063729,29.6985311 C230.063729,30.6512994 230.197514,30.9242938 230.741695,30.9242938 L231.15209,30.9242938 L231.15209,31.4684746 L225.983277,31.4684746 L225.983277,30.9224859 L225.981469,30.9224859 L225.981469,30.9224859 Z M243.80565,28.3371751 L244.349831,28.3371751 C244.760226,29.9679096 245.709379,31.059887 247.343729,31.059887 C248.296497,31.059887 249.247458,30.5157062 249.247458,29.5629379 C249.247458,28.3371751 248.298305,28.199774 246.528362,27.6555932 C245.165198,27.3844068 243.80565,26.840226 243.80565,24.9364972 C243.80565,22.7579661 245.436384,21.8051977 247.477514,21.8051977 C248.296497,21.8051977 248.840678,22.0763842 249.518644,22.0763842 C250.066441,22.0763842 250.337627,21.940791 250.610621,21.8051977 L250.744407,21.8051977 L250.744407,24.799096 L250.066441,24.799096 C249.795254,23.5733333 248.840678,22.4849718 247.616723,22.4849718 C246.663955,22.4849718 245.709379,22.7579661 245.709379,23.8445198 C245.709379,24.7972881 246.257175,24.9364972 248.298305,25.4788701 C250.068249,25.8856497 251.288588,26.4316384 251.288588,28.6065537 C251.288588,30.7850847 249.384859,31.7342373 247.479322,31.7342373 C246.663955,31.7342373 245.709379,31.4630508 244.760226,31.4630508 C244.48904,31.4630508 244.078644,31.600452 243.941243,31.7342373 L243.807458,31.7342373 L243.807458,28.3371751 L243.80565,28.3371751 L243.80565,28.3371751 Z M258.912542,22.6223729 L256.867797,22.6223729 L256.867797,28.6101695 C256.867797,29.6985311 256.867797,30.6512994 257.68678,30.6512994 C258.364746,30.6512994 258.502147,29.8359322 258.502147,29.1543503 L258.502147,28.6101695 L259.317514,28.6101695 L259.317514,29.020565 C259.317514,30.9242938 258.502147,31.739661 256.867797,31.739661 C254.826667,31.739661 254.148701,30.5175141 254.148701,29.2917514 L254.148701,22.6241808 L252.785537,22.6241808 L252.785537,22.08 C254.692881,21.9444068 255.916836,20.1744633 256.323616,18.5419209 L256.867797,18.5419209 L256.867797,22.08 L258.912542,22.08 L258.912542,22.6223729 Z M263.399774,26.1622599 C263.399774,24.3923164 263.399774,22.4849718 264.896723,22.4849718 C266.393672,22.4849718 266.393672,24.119322 266.393672,26.1622599 L263.399774,26.1622599 Z M269.251977,26.7046328 C269.251977,23.8445198 268.163616,21.8051977 265.035932,21.8051977 C262.042034,21.8051977 260.405876,23.8445198 260.405876,26.7046328 C260.405876,29.6949153 262.040226,31.7360452 265.035932,31.7360452 C267.483842,31.7360452 268.845198,30.5138983 268.980791,28.1979661 L268.302825,28.1979661 C268.165424,29.6949153 267.350056,31.0580791 265.580113,31.0580791 C263.538983,31.0580791 263.401582,29.1507345 263.401582,27.2488136 L263.401582,26.7046328 L269.251977,26.7046328 L269.251977,26.7046328 Z M274.558192,29.6967232 C274.558192,30.6494915 274.695593,30.9224859 275.239774,30.9224859 L276.055141,30.9224859 L276.055141,31.4666667 L270.475932,31.4666667 L270.475932,30.9224859 L271.020113,30.9224859 C271.564294,30.9224859 271.839096,30.6512994 271.839096,29.6967232 L271.839096,23.8463277 C271.839096,22.8953672 271.564294,22.6223729 271.020113,22.6223729 L270.475932,22.6223729 L270.475932,22.0781921 L272.383277,22.0781921 C273.061243,22.0781921 273.742825,21.9425989 274.424407,21.8070056 L274.424407,23.8463277 L274.558192,23.8463277 C274.968588,22.8953672 275.646554,21.9425989 277.00791,21.9425989 C277.823277,21.9425989 278.777853,22.2137853 278.777853,23.439548 C278.777853,24.3923164 278.233672,24.799096 277.280904,24.799096 C276.870508,24.799096 276.055141,24.6635028 276.055141,23.7107345 C276.055141,23.1665537 276.055141,23.1665537 275.783955,23.1665537 C275.239774,23.1665537 274.558192,24.3905085 274.558192,26.4334463 L274.558192,29.6967232 L274.558192,29.6967232 Z M282.588927,26.4334463 C282.588927,25.6144633 282.588927,22.6223729 283.948475,22.6223729 C285.718418,22.6223729 285.855819,25.2094915 285.855819,26.5690395 C285.855819,27.7948023 285.855819,30.7887006 283.948475,30.7887006 C282.588927,30.7868927 282.588927,27.3825989 282.588927,26.4334463 Z M286.127006,31.4648588 L289.936271,31.4648588 L289.936271,30.920678 L289.39209,30.920678 C288.84791,30.920678 288.573107,30.6494915 288.573107,29.6949153 L288.573107,17.5855367 L284.628249,17.5855367 L284.628249,18.1297175 L285.172429,18.1297175 C285.854011,18.1297175 285.987797,18.400904 285.987797,19.3536723 L285.987797,23.300339 L285.854011,23.300339 C285.309831,22.2101695 284.490847,21.8033898 283.268701,21.8033898 C280.545989,21.8033898 279.59322,24.3887006 279.59322,26.7028249 C279.59322,29.0151412 280.545989,31.7342373 283.131299,31.7342373 C284.490847,31.7342373 285.581017,31.1900565 285.987797,30.1035028 L286.125198,30.1035028 L286.125198,31.4648588 L286.127006,31.4648588 Z M296.741243,28.8813559 C296.741243,30.5157062 295.788475,30.7887006 295.244294,30.7887006 C294.291525,30.7887006 294.018531,29.9697175 294.018531,29.1543503 C294.018531,27.3844068 294.700113,26.4352542 296.193446,26.4352542 C296.330847,26.4352542 296.603842,26.4352542 296.741243,26.5690395 L296.741243,28.8813559 Z M300.550508,28.7457627 C300.550508,29.6949153 300.550508,30.6494915 299.868927,30.6494915 C299.59774,30.6494915 299.458531,30.5157062 299.458531,29.9679096 L299.458531,24.3905085 C299.458531,22.2119774 297.417401,21.8051977 295.649266,21.8051977 C294.289718,21.8051977 291.84,22.0763842 291.84,23.9837288 C291.84,24.6635028 292.387797,25.2094915 293.203164,25.2094915 C294.018531,25.2094915 294.700113,24.799096 294.700113,24.119322 C294.700113,23.5733333 294.155932,23.1665537 294.155932,23.0309605 C294.155932,22.4849718 295.105085,22.4849718 295.51548,22.4849718 C296.468249,22.4849718 296.741243,23.1665537 296.741243,23.9837288 L296.741243,25.8874576 L295.92226,25.8874576 C293.88113,25.8874576 291.162034,26.7064407 291.162034,29.1543503 C291.162034,30.7887006 292.521582,31.739661 294.155932,31.739661 C295.105085,31.739661 296.330847,31.3328814 296.875028,30.5175141 C297.146215,31.3328814 298.238192,31.739661 298.916158,31.739661 C301.228475,31.739661 301.228475,30.1089266 301.228475,28.7493785 L300.550508,28.7493785 L300.550508,28.7457627 L300.550508,28.7457627 Z M302.183051,30.9224859 L302.727232,30.9224859 C303.271412,30.9224859 303.408814,30.6512994 303.408814,29.6967232 L303.408814,23.8463277 C303.408814,22.8953672 303.271412,22.6223729 302.727232,22.6223729 L302.183051,22.6223729 L302.183051,22.0781921 L304.090395,22.0781921 C304.733517,22.0640587 305.372637,21.9730159 305.994124,21.8070056 L305.994124,23.439548 L306.131525,23.439548 C306.809492,22.3511864 307.76226,21.8070056 309.121808,21.8070056 C310.347571,21.8070056 311.300339,22.2155932 311.710734,23.439548 C312.388701,22.2137853 313.341469,21.8070056 314.838418,21.8070056 C316.608362,21.8070056 317.423729,22.8953672 317.423729,24.3923164 L317.423729,29.6985311 C317.423729,30.6512994 317.694915,30.9242938 318.239096,30.9242938 L318.649492,30.9242938 L318.649492,31.4684746 L313.751864,31.4684746 L313.751864,30.9242938 L314.023051,30.9242938 C314.704633,30.9242938 314.838418,30.6531073 314.838418,29.6985311 L314.838418,24.9383051 C314.838418,23.9855367 314.838418,22.8953672 313.612655,22.8953672 C311.842712,22.8953672 311.842712,24.9383051 311.842712,26.1640678 L311.842712,29.6985311 C311.842712,30.6512994 311.980113,30.9242938 312.524294,30.9242938 L312.934689,30.9242938 L312.934689,31.4684746 L308.033446,31.4684746 L308.033446,30.9242938 L308.304633,30.9242938 C308.986215,30.9242938 309.12,30.6531073 309.12,29.6985311 L309.12,24.9383051 C309.12,23.9855367 309.12,22.8953672 307.897853,22.8953672 C306.263503,22.8953672 306.263503,24.9383051 306.263503,26.1640678 L306.263503,29.6985311 C306.263503,30.6512994 306.263503,30.9242938 306.807684,30.9242938 L307.218079,30.9242938 L307.218079,31.4684746 L302.183051,31.4684746 L302.183051,30.9224859 L302.183051,30.9224859 Z M0.911186441,24.119322 C6.35480226,18.1315254 14.519322,14.7308475 17.5132203,14.7308475 C18.3303955,14.7308475 18.4659887,15.139435 18.4659887,15.4106215 C18.4659887,15.6836158 18.0574011,16.0903955 16.9690395,16.7701695 C14.7923164,18.1315254 11.1186441,20.5812429 11.1186441,21.6696045 C11.1186441,21.8051977 11.2542373,21.940791 11.3898305,21.940791 C12.2070056,21.940791 20.3715254,16.9057627 31.5299435,16.9057627 C33.7066667,16.9057627 36.8379661,17.5855367 36.8379661,18.9468927 C36.8379661,19.6266667 36.2937853,20.1708475 34.7968362,20.579435 C28.1292655,21.6677966 22.1414689,24.3887006 22.1414689,25.7500565 C22.1414689,26.160452 22.4126554,26.160452 22.8212429,26.160452 C23.9114124,26.160452 27.040904,25.8856497 29.2176271,25.8856497 C37.1091525,25.8856497 38.6061017,28.1979661 38.6061017,29.6949153 C38.6061017,33.2329944 29.6244068,45.0729944 26.6305085,48.3380791 L20.5071186,37.7238418 C24.5893785,35.1385311 29.2158192,30.6476836 29.2158192,29.6949153 C29.2158192,29.1507345 29.080226,28.7457627 27.5832768,28.7457627 C25.1335593,28.7457627 19.0101695,29.9679096 16.6978531,31.1936723 L14.5211299,27.3844068 C22.6856497,21.2628249 25.9507345,21.1254237 25.9507345,20.3082486 C25.9507345,20.0370621 25.5421469,19.7640678 24.5893785,19.7640678 C20.100339,19.7640678 11.3898305,23.7107345 8.80632768,25.3414689 C8.39774011,25.6126554 7.85355932,25.6126554 7.85355932,25.6126554 C7.44497175,25.6126554 6.90079096,25.4788701 6.90079096,25.0684746 C6.90079096,24.2531073 8.26033898,22.2101695 9.07751412,21.1218079 C9.48610169,20.5776271 9.62169492,20.1690395 9.62169492,20.0334463 C9.62169492,19.7622599 9.48429379,19.6248588 9.34870056,19.6248588 C8.39774011,19.6248588 4.1780791,22.4813559 1.8639548,25.0666667 L0.911186441,24.119322 Z" id="Shape" fill="#000000" fill-rule="nonzero"></path>
                <path d="M8.25853107,16.4971751 C13.8454336,13.2794035 20.1814185,11.5901816 26.6287006,11.599548 C33.4318644,11.599548 39.6926554,13.3676836 45.1344633,16.4971751 L50.8510734,6.56451977 C43.639322,2.48225989 35.4748023,0.0325423729 26.6305085,0.0325423729 C17.9218079,0.0325423729 9.62169492,2.48045198 2.54553672,6.56451977 L8.25853107,16.4971751 L8.25853107,16.4971751 Z" id="Path" fill="#000000" fill-rule="nonzero"></path>
            </g>
        </g>
    </g>
</svg>