<?xml version="1.0" encoding="UTF-8"?>
<svg width="422px" height="687px" viewBox="0 0 422 687" version="1.1" xmlns="http://www.w3.org/2000/svg" xmlns:xlink="http://www.w3.org/1999/xlink">
    <title>Group</title>
    <defs>
        <filter id="filter-1">
            <feColorMatrix in="SourceGraphic" type="matrix" values="0 0 0 0 1.000000 0 0 0 0 1.000000 0 0 0 0 1.000000 0 0 0 1.000000 0"></feColorMatrix>
        </filter>
        <filter id="filter-2">
            <feColorMatrix in="SourceGraphic" type="matrix" values="0 0 0 0 1.000000 0 0 0 0 1.000000 0 0 0 0 1.000000 0 0 0 1.000000 0"></feColorMatrix>
        </filter>
        <filter id="filter-3">
            <feColorMatrix in="SourceGraphic" type="matrix" values="0 0 0 0 1.000000 0 0 0 0 1.000000 0 0 0 0 1.000000 0 0 0 1.000000 0"></feColorMatrix>
        </filter>
    </defs>
    <g id="Page-1" stroke="none" stroke-width="1" fill="none" fill-rule="evenodd">
        <g id="Group" transform="translate(211.139570, 343.663078) rotate(8.000000) translate(-211.139570, -343.663078) translate(44.139570, 20.663078)">
            <g filter="url(#filter-1)" id="curved-arrow-with-broken-line">
                <g transform="translate(131.633903, 259.480408) rotate(29.000000) translate(-131.633903, -259.480408) translate(40.561413, 153.335314)">
                    <path d="M25.0126259,0.591976486 C22.9672191,2.0296088 20.24001,2.38901688 18.5355043,4.18605728 C17.1718998,5.26428151 17.1718998,7.42072999 18.5355043,8.49895423 C19.8991089,9.21777038 21.6036146,8.49895423 22.9672191,8.13954615 C23.9899225,7.78013807 24.3308237,7.06132191 24.3308237,5.98309767 C25.3535271,5.26428151 26.3762305,4.54546536 27.0580328,3.46724112 C28.4216373,2.0296088 26.7171316,-0.845655831 25.0126259,0.591976486 Z" id="Path" fill="#000000" fill-rule="nonzero"></path>
                    <path d="M11.3287677,22.4715538 C9.27932521,24.2607162 7.22988267,26.4077111 5.52201388,28.5547061 C3.8141451,30.701701 1.76470256,33.5643609 1.76470256,36.0691884 C1.76470256,37.5005183 3.47257134,38.2161833 4.15571886,37.1426858 C5.86358764,35.3535234 6.2051614,32.4908635 7.57145642,30.3438685 C8.93775145,27.8390411 10.6456202,26.0498786 12.6950628,23.9028837 C13.3782103,22.8293862 12.0119153,21.7558888 11.3287677,22.4715538 Z" id="Path" fill="#000000" fill-rule="nonzero"></path>
                    <path d="M3.31733064,54.6033407 C2.62882192,51.7290237 2.28456757,48.4954172 2.28456757,45.2618106 C2.28456757,44.1839418 0.563295785,44.1839418 0.563295785,45.2618106 C0.563295785,49.573286 -1.50223035,58.1962368 2.62882192,61.0705538 C3.31733064,61.789133 4.35009371,60.7112641 4.35009371,59.9926849 C4.35009371,58.1962368 3.66158499,56.3997887 3.31733064,54.6033407 Z" id="Path" fill="#000000" fill-rule="nonzero"></path>
                    <path d="M22.2310442,68.420354 C16.8007995,69.1415316 12.0493354,70.2232981 6.95848105,67.3385875 C6.27970047,66.9779986 5.94031018,67.6991763 6.61909076,68.0597651 C11.7099452,72.0262423 17.4795801,73.8291865 23.2492151,70.583887 C24.6067763,69.8627093 23.2492151,68.0597651 22.2310442,68.420354 Z" id="Path" fill="#000000" fill-rule="nonzero"></path>
                    <path d="M46.6500279,49.6413622 C43.965687,50.7470696 41.9524314,52.9584845 39.6036332,54.8013302 C36.9192924,57.012745 34.5704942,59.2241599 32.221696,61.8041439 C31.5506108,62.5412822 32.5572386,64.0155587 33.5638664,63.2784204 C35.577122,61.0670056 37.9259202,59.592729 40.2747184,57.7498833 C42.6235166,55.9070376 45.6434,54.432761 47.6566557,52.2213462 C48.6632835,51.1156388 47.9921983,48.9042239 46.6500279,49.6413622 Z" id="Path" fill="#000000" fill-rule="nonzero"></path>
                    <path d="M69.1721941,23.6712777 C63.1921909,26.1930189 57.54441,32.3172477 53.2255188,37.3607302 C52.561074,38.4414764 53.5577412,39.5222227 54.5544084,38.8017252 C57.2121876,36.2799839 60.2021893,33.7582427 63.1921909,31.5967502 C65.5177477,29.7955064 68.1755269,28.3545114 70.1688613,26.1930189 C71.1655285,24.7520239 70.1688613,23.3110289 69.1721941,23.6712777 Z" id="Path" fill="#000000" fill-rule="nonzero"></path>
                    <path d="M99.9261266,9.87950416 C93.7585842,9.52292103 87.5910418,12.019003 82.1087818,14.1585017 C81.0808581,14.5150849 81.4234993,15.9414174 82.4514231,15.9414174 C88.2763242,14.1585017 94.1012254,13.4453355 99.9261266,13.0887523 C101.639333,12.7321692 101.639333,9.87950416 99.9261266,9.87950416 Z" id="Path" fill="#000000" fill-rule="nonzero"></path>
                    <path d="M122.5112,22.0259867 C120.830135,19.8717496 118.476644,17.7175125 116.459366,15.9223149 C114.778301,14.4861568 112.761023,16.6403939 114.105875,18.4355915 C115.78749,20.2307891 117.468005,22.3850262 119.14907,24.5392634 C120.830685,26.6935005 122.5112,29.9248562 124.864691,31.7200538 C125.87333,32.4381329 127.218182,31.3610143 126.881969,29.9248562 C126.881969,27.05254 124.528478,24.1802239 122.5112,22.0259867 Z" id="Path" fill="#000000" fill-rule="nonzero"></path>
                    <path d="M128.856338,41.6314148 C128.856338,40.172625 126.377283,40.172625 126.377283,41.6314148 C126.02305,45.2783893 125.314583,48.5606664 124.605538,52.2076409 C123.897071,55.489918 122.125904,58.7721951 122.125904,62.4191696 C122.125904,64.2426569 124.605538,64.9720518 125.314583,63.1485645 C128.502683,56.9487078 129.210571,48.1959689 128.856338,41.6314148 Z" id="Path" fill="#000000" fill-rule="nonzero"></path>
                    <path d="M114.193343,78.0094814 C112.524921,80.5597462 110.857588,83.1100111 109.189165,85.6602759 C107.855408,88.2105407 105.52038,90.7608055 105.186259,93.6753938 C105.186259,95.132688 106.520561,95.4970116 107.521288,95.132688 C109.856316,94.0397174 110.857043,90.7608055 111.85777,88.5748642 C113.525647,85.6602759 114.859949,82.381364 116.527827,79.4667756 C117.195523,77.6451579 115.19407,76.5521873 114.193343,78.0094814 Z" id="Path" fill="#000000" fill-rule="nonzero"></path>
                    <path d="M97.472497,104.273246 C94.4127843,107.181063 92.0330078,110.08888 89.9931993,113.360174 C87.9533908,116.631468 85.2336462,121.35667 85.9135824,125.354919 C86.2535505,127.172304 87.9533908,127.535781 88.9732951,126.081873 C90.6731355,123.537533 91.0131035,119.902762 92.0330078,116.994945 C93.3928801,112.63322 95.7726566,108.634971 98.4924012,105.0002 C99.1723374,104.636723 98.1524331,103.546292 97.472497,104.273246 Z" id="Path" fill="#000000" fill-rule="nonzero"></path>
                    <path d="M77.981077,139.793037 C74.9232397,142.6942 72.5449218,145.958008 70.5063636,149.947106 C68.4678054,153.936205 66.0894875,159.013832 66.7690069,163.365576 C67.1087666,164.816157 69.1473248,164.816157 69.4870845,163.728221 C71.5256427,160.463821 71.5256427,156.112077 72.8846815,152.485624 C74.2437203,148.497118 76.6220382,144.507427 79.3401158,140.880973 C80.0196352,140.155683 79.0003561,138.705102 77.981077,139.793037 Z" id="Path" fill="#000000" fill-rule="nonzero"></path>
                    <path d="M77.5548321,195.048107 C75.1695732,193.594744 73.1250655,192.504275 71.4213091,190.323338 C69.7175527,187.415423 69.0360502,183.053549 69.0360502,179.782144 C69.0360502,178.691082 67.3322938,178.691082 67.3322938,179.782144 C66.6507912,186.688444 68.0137963,198.683002 76.8733296,198.320106 C78.2363347,197.956617 78.9178373,195.77568 77.5548321,195.048107 Z" id="Path" fill="#000000" fill-rule="nonzero"></path>
                    <path d="M113.668355,207.315003 C109.922268,206.95809 106.175069,207.671334 102.428982,207.671334 C97.6599705,207.315003 93.2321195,205.886765 89.4854763,203.031454 C88.8042684,202.675123 88.4636645,203.745865 88.8042684,204.102195 C95.9569509,209.812817 105.835021,214.809612 114.690723,210.883559 C116.393187,209.812817 115.371375,207.315003 113.668355,207.315003 Z" id="Path" fill="#000000" fill-rule="nonzero"></path>
                    <path d="M142.730087,182.807484 C140.356864,184.262633 138.322673,186.445358 135.610417,188.264295 C133.237194,189.719444 130.524385,190.447019 127.812683,190.810806 C126.11697,191.174594 126.11697,193.721105 127.812683,193.721105 C133.915258,194.084893 141.712992,191.902168 145.103311,185.717783 C146.459992,183.898846 144.425247,182.079314 142.730087,182.807484 Z" id="Path" fill="#000000" fill-rule="nonzero"></path>
                    <path d="M156.632648,161.430931 C152.164398,166.064301 147.352998,171.054084 144.259032,176.756693 C143.227897,178.53934 145.633878,179.607997 146.665013,178.182345 C150.44584,173.192562 156.632648,169.628432 159.382902,163.56941 C159.726052,161.787927 158.007494,160.005861 156.632648,161.430931 Z" id="Path" fill="#000000" fill-rule="nonzero"></path>
                    <path d="M181.915087,161.404966 C180.917285,159.245534 178.256482,157.805912 176.260879,156.726196 C173.932676,155.64648 171.271873,155.287163 168.61107,155.287163 C166.948067,155.287163 166.948067,157.805912 168.61107,157.805912 C170.939273,157.805912 172.934875,158.526311 174.930478,159.606027 C176.594023,160.685744 177.924425,162.485271 179.586884,163.564399 C180.917285,164.643527 182.579744,162.844588 181.915087,161.404966 Z" id="Path" fill="#000000" fill-rule="nonzero"></path>
                </g>
            </g>
            <g filter="url(#filter-2)" id="curved-arrow-with-broken-line">
                <g transform="translate(193.485081, 503.464537) rotate(29.000000) translate(-193.485081, -503.464537) translate(92.001766, 397.319444)">
                    <path d="M25.0126259,0.591976486 C22.9672191,2.0296088 20.24001,2.38901688 18.5355043,4.18605728 C17.1718998,5.26428151 17.1718998,7.42072999 18.5355043,8.49895423 C19.8991089,9.21777038 21.6036146,8.49895423 22.9672191,8.13954615 C23.9899225,7.78013807 24.3308237,7.06132191 24.3308237,5.98309767 C25.3535271,5.26428151 26.3762305,4.54546536 27.0580328,3.46724112 C28.4216373,2.0296088 26.7171316,-0.845655831 25.0126259,0.591976486 Z" id="Path" fill="#000000" fill-rule="nonzero"></path>
                    <path d="M11.3287677,22.4715538 C9.27932521,24.2607162 7.22988267,26.4077111 5.52201388,28.5547061 C3.8141451,30.701701 1.76470256,33.5643609 1.76470256,36.0691884 C1.76470256,37.5005183 3.47257134,38.2161833 4.15571886,37.1426858 C5.86358764,35.3535234 6.2051614,32.4908635 7.57145642,30.3438685 C8.93775145,27.8390411 10.6456202,26.0498786 12.6950628,23.9028837 C13.3782103,22.8293862 12.0119153,21.7558888 11.3287677,22.4715538 Z" id="Path" fill="#000000" fill-rule="nonzero"></path>
                    <path d="M3.31733064,54.6033407 C2.62882192,51.7290237 2.28456757,48.4954172 2.28456757,45.2618106 C2.28456757,44.1839418 0.563295785,44.1839418 0.563295785,45.2618106 C0.563295785,49.573286 -1.50223035,58.1962368 2.62882192,61.0705538 C3.31733064,61.789133 4.35009371,60.7112641 4.35009371,59.9926849 C4.35009371,58.1962368 3.66158499,56.3997887 3.31733064,54.6033407 Z" id="Path" fill="#000000" fill-rule="nonzero"></path>
                    <path d="M22.2310442,68.420354 C16.8007995,69.1415316 12.0493354,70.2232981 6.95848105,67.3385875 C6.27970047,66.9779986 5.94031018,67.6991763 6.61909076,68.0597651 C11.7099452,72.0262423 17.4795801,73.8291865 23.2492151,70.583887 C24.6067763,69.8627093 23.2492151,68.0597651 22.2310442,68.420354 Z" id="Path" fill="#000000" fill-rule="nonzero"></path>
                    <path d="M46.6500279,49.6413622 C43.965687,50.7470696 41.9524314,52.9584845 39.6036332,54.8013302 C36.9192924,57.012745 34.5704942,59.2241599 32.221696,61.8041439 C31.5506108,62.5412822 32.5572386,64.0155587 33.5638664,63.2784204 C35.577122,61.0670056 37.9259202,59.592729 40.2747184,57.7498833 C42.6235166,55.9070376 45.6434,54.432761 47.6566557,52.2213462 C48.6632835,51.1156388 47.9921983,48.9042239 46.6500279,49.6413622 Z" id="Path" fill="#000000" fill-rule="nonzero"></path>
                    <path d="M69.1721941,23.6712777 C63.1921909,26.1930189 57.54441,32.3172477 53.2255188,37.3607302 C52.561074,38.4414764 53.5577412,39.5222227 54.5544084,38.8017252 C57.2121876,36.2799839 60.2021893,33.7582427 63.1921909,31.5967502 C65.5177477,29.7955064 68.1755269,28.3545114 70.1688613,26.1930189 C71.1655285,24.7520239 70.1688613,23.3110289 69.1721941,23.6712777 Z" id="Path" fill="#000000" fill-rule="nonzero"></path>
                    <path d="M99.9261266,9.87950416 C93.7585842,9.52292103 87.5910418,12.019003 82.1087818,14.1585017 C81.0808581,14.5150849 81.4234993,15.9414174 82.4514231,15.9414174 C88.2763242,14.1585017 94.1012254,13.4453355 99.9261266,13.0887523 C101.639333,12.7321692 101.639333,9.87950416 99.9261266,9.87950416 Z" id="Path" fill="#000000" fill-rule="nonzero"></path>
                    <path d="M122.5112,22.0259867 C120.830135,19.8717496 118.476644,17.7175125 116.459366,15.9223149 C114.778301,14.4861568 112.761023,16.6403939 114.105875,18.4355915 C115.78749,20.2307891 117.468005,22.3850262 119.14907,24.5392634 C120.830685,26.6935005 122.5112,29.9248562 124.864691,31.7200538 C125.87333,32.4381329 127.218182,31.3610143 126.881969,29.9248562 C126.881969,27.05254 124.528478,24.1802239 122.5112,22.0259867 Z" id="Path" fill="#000000" fill-rule="nonzero"></path>
                    <path d="M128.856338,41.6314148 C128.856338,40.172625 126.377283,40.172625 126.377283,41.6314148 C126.02305,45.2783893 125.314583,48.5606664 124.605538,52.2076409 C123.897071,55.489918 122.125904,58.7721951 122.125904,62.4191696 C122.125904,64.2426569 124.605538,64.9720518 125.314583,63.1485645 C128.502683,56.9487078 129.210571,48.1959689 128.856338,41.6314148 Z" id="Path" fill="#000000" fill-rule="nonzero"></path>
                    <path d="M114.193343,78.0094814 C112.524921,80.5597462 110.857588,83.1100111 109.189165,85.6602759 C107.855408,88.2105407 105.52038,90.7608055 105.186259,93.6753938 C105.186259,95.132688 106.520561,95.4970116 107.521288,95.132688 C109.856316,94.0397174 110.857043,90.7608055 111.85777,88.5748642 C113.525647,85.6602759 114.859949,82.381364 116.527827,79.4667756 C117.195523,77.6451579 115.19407,76.5521873 114.193343,78.0094814 Z" id="Path" fill="#000000" fill-rule="nonzero"></path>
                    <path d="M97.472497,104.273246 C94.4127843,107.181063 92.0330078,110.08888 89.9931993,113.360174 C87.9533908,116.631468 85.2336462,121.35667 85.9135824,125.354919 C86.2535505,127.172304 87.9533908,127.535781 88.9732951,126.081873 C90.6731355,123.537533 91.0131035,119.902762 92.0330078,116.994945 C93.3928801,112.63322 95.7726566,108.634971 98.4924012,105.0002 C99.1723374,104.636723 98.1524331,103.546292 97.472497,104.273246 Z" id="Path" fill="#000000" fill-rule="nonzero"></path>
                    <path d="M77.981077,139.793037 C74.9232397,142.6942 72.5449218,145.958008 70.5063636,149.947106 C68.4678054,153.936205 66.0894875,159.013832 66.7690069,163.365576 C67.1087666,164.816157 69.1473248,164.816157 69.4870845,163.728221 C71.5256427,160.463821 71.5256427,156.112077 72.8846815,152.485624 C74.2437203,148.497118 76.6220382,144.507427 79.3401158,140.880973 C80.0196352,140.155683 79.0003561,138.705102 77.981077,139.793037 Z" id="Path" fill="#000000" fill-rule="nonzero"></path>
                    <path d="M77.5548321,195.048107 C75.1695732,193.594744 73.1250655,192.504275 71.4213091,190.323338 C69.7175527,187.415423 69.0360502,183.053549 69.0360502,179.782144 C69.0360502,178.691082 67.3322938,178.691082 67.3322938,179.782144 C66.6507912,186.688444 68.0137963,198.683002 76.8733296,198.320106 C78.2363347,197.956617 78.9178373,195.77568 77.5548321,195.048107 Z" id="Path" fill="#000000" fill-rule="nonzero"></path>
                    <path d="M113.668355,207.315003 C109.922268,206.95809 106.175069,207.671334 102.428982,207.671334 C97.6599705,207.315003 93.2321195,205.886765 89.4854763,203.031454 C88.8042684,202.675123 88.4636645,203.745865 88.8042684,204.102195 C95.9569509,209.812817 105.835021,214.809612 114.690723,210.883559 C116.393187,209.812817 115.371375,207.315003 113.668355,207.315003 Z" id="Path" fill="#000000" fill-rule="nonzero"></path>
                    <path d="M142.730087,182.807484 C140.356864,184.262633 138.322673,186.445358 135.610417,188.264295 C133.237194,189.719444 130.524385,190.447019 127.812683,190.810806 C126.11697,191.174594 126.11697,193.721105 127.812683,193.721105 C133.915258,194.084893 141.712992,191.902168 145.103311,185.717783 C146.459992,183.898846 144.425247,182.079314 142.730087,182.807484 Z" id="Path" fill="#000000" fill-rule="nonzero"></path>
                    <path d="M156.632648,161.430931 C152.164398,166.064301 147.352998,171.054084 144.259032,176.756693 C143.227897,178.53934 145.633878,179.607997 146.665013,178.182345 C150.44584,173.192562 156.632648,169.628432 159.382902,163.56941 C159.726052,161.787927 158.007494,160.005861 156.632648,161.430931 Z" id="Path" fill="#000000" fill-rule="nonzero"></path>
                    <path d="M181.915087,161.404966 C180.917285,159.245534 178.256482,157.805912 176.260879,156.726196 C173.932676,155.64648 171.271873,155.287163 168.61107,155.287163 C166.948067,155.287163 166.948067,157.805912 168.61107,157.805912 C170.939273,157.805912 172.934875,158.526311 174.930478,159.606027 C176.594023,160.685744 177.924425,162.485271 179.586884,163.564399 C180.917285,164.643527 182.579744,162.844588 181.915087,161.404966 Z" id="Path" fill="#000000" fill-rule="nonzero"></path>
                    <path d="M202.528992,175.724424 C197.716222,167.406518 194.622298,158.003668 190.497066,149.324114 C188.43445,145.345985 182.934141,148.962466 184.652988,152.940595 C187.746912,160.172965 190.497066,167.768166 194.622298,174.63948 C191.528374,175.001128 188.43445,175.362776 184.996757,175.724424 C183.62168,176.086073 181.215295,176.086073 180.183987,177.533256 L179.840779,177.894313 C179.840779,177.894313 179.49701,177.894313 179.49701,178.255961 C178.809471,178.979257 179.49701,180.42585 180.184548,180.42585 L180.184548,180.42585 C180.528318,180.787498 180.872649,180.787498 181.559626,180.787498 C183.279034,181.148555 184.997319,180.787498 187.059935,180.787498 C191.528936,180.42585 195.654167,180.063611 200.123169,180.42585 C202.185223,180.787498 203.5603,177.894313 202.528992,175.724424 Z" id="Path" fill="#000000" fill-rule="nonzero"></path>
                </g>
            </g>
            <g filter="url(#filter-3)" id="curved-arrow-with-broken-line">
                <g transform="translate(91.716272, 80.210043) rotate(42.000000) translate(-91.716272, -80.210043) translate(33.216272, 25.210043)">
                    <path d="M30.8033664,0.530100967 C27.7436537,3.43791792 25.3638772,6.34573488 23.3240687,9.61702895 C21.2842602,12.888323 18.5645156,17.6135256 19.2444518,21.6117739 C19.5844199,23.4291595 21.2842602,23.7926366 22.3041645,22.3387281 C24.0040048,19.7943883 24.3439729,16.1596171 25.3638772,13.2518001 C26.7237495,8.89007471 29.103526,4.8918264 31.8232706,1.25705521 C32.5032067,0.893578087 31.4833025,-0.196853271 30.8033664,0.530100967 Z" id="Path" fill="#000000" fill-rule="nonzero"></path>
                    <path d="M11.981077,36.7930375 C8.92323971,39.6942 6.5449218,42.9580079 4.50636359,46.9471065 C2.46780538,50.936205 0.0894874703,56.013832 0.769006873,60.3655759 C1.10876657,61.8161572 3.14732478,61.8161572 3.48708449,60.7282212 C5.52564269,57.4638208 5.52564269,53.1120769 6.8846815,49.4856237 C8.24372031,45.4971177 10.6220382,41.5074266 13.3401158,37.8809734 C14.0196352,37.1556828 13.0003561,35.7051015 11.981077,36.7930375 Z" id="Path" fill="#000000" fill-rule="nonzero"></path>
                    <path d="M11.5548321,92.0481074 C9.16957318,90.5947435 7.12506551,89.5042752 5.42130911,87.3233385 C3.71755271,84.4154228 3.03605016,80.0535494 3.03605016,76.7821444 C3.03605016,75.6910821 1.33229376,75.6910821 1.33229376,76.7821444 C0.650791202,83.6884439 2.01379632,95.6830019 10.8733296,95.3201064 C12.2363347,94.9566169 12.9178373,92.7756802 11.5548321,92.0481074 Z" id="Path" fill="#000000" fill-rule="nonzero"></path>
                    <path d="M47.6683552,104.315003 C43.9222685,103.95809 40.1750687,104.671334 36.4289821,104.671334 C31.6599705,104.315003 27.2321195,102.886765 23.4854763,100.031454 C22.8042684,99.6751231 22.4636645,100.745865 22.8042684,101.102195 C29.9569509,106.812817 39.8350213,111.809612 48.6907235,107.883559 C50.3931866,106.812817 49.3713748,104.315003 47.6683552,104.315003 Z" id="Path" fill="#000000" fill-rule="nonzero"></path>
                    <path d="M76.7300874,79.8074837 C74.3568641,81.2626333 72.3226726,83.4453576 69.6104173,85.2642945 C67.237194,86.7194441 64.5243847,87.4470189 61.8126834,87.8108063 C60.1169699,88.1745936 60.1169699,90.7211054 61.8126834,90.7211054 C67.9152578,91.0848928 75.7129917,88.9021684 79.1033108,82.7177828 C80.4599924,80.8988459 78.425247,79.0793145 76.7300874,79.8074837 Z" id="Path" fill="#000000" fill-rule="nonzero"></path>
                    <path d="M90.6326479,58.4309311 C86.1643977,63.0643009 81.3529975,68.0540838 78.2590319,73.7566928 C77.2278972,75.5393405 79.6338781,76.6079973 80.6650128,75.182345 C84.4458399,70.1925622 90.6326479,66.6284316 93.3829019,60.5694095 C93.7260519,58.7879266 92.0074941,57.0058613 90.6326479,58.4309311 Z" id="Path" fill="#000000" fill-rule="nonzero"></path>
                    <path d="M115.915087,58.4049664 C114.917285,56.2455339 112.256482,54.8059123 110.260879,53.7261961 C107.932676,52.6464798 105.271873,52.2871625 102.61107,52.2871625 C100.948067,52.2871625 100.948067,54.8059123 102.61107,54.8059123 C104.939273,54.8059123 106.934875,55.5263112 108.930478,56.6060274 C110.594023,57.6857436 111.924425,59.4852707 113.586884,60.5643988 C114.917285,61.643527 116.579744,59.844588 115.915087,58.4049664 Z" id="Path" fill="#000000" fill-rule="nonzero"></path>
                </g>
            </g>
        </g>
    </g>
</svg>